<?xml version="1.0" encoding="UTF-8" standalone="no"?>
<!DOCTYPE svg PUBLIC "-//W3C//DTD SVG 1.1//EN" "http://www.w3.org/Graphics/SVG/1.1/DTD/svg11.dtd">
<!-- Created with Vectornator (http://vectornator.io/) -->
<svg height="100%" stroke-miterlimit="10" style="fill-rule:nonzero;clip-rule:evenodd;stroke-linecap:round;stroke-linejoin:round;" version="1.1" viewBox="0 0 500 371.83" width="100%" xml:space="preserve" xmlns="http://www.w3.org/2000/svg" xmlns:vectornator="http://vectornator.io" xmlns:xlink="http://www.w3.org/1999/xlink">
<defs/>
<g id="Слой-2" vectornator:layerName="Слой 2">
<path d="M334.085 208.142L303.522 208.142L312.021 160.233L298.625 160.233L288.151 219.474L332.026 219.474L334.085 208.142Z" fill="#000000" fill-rule="nonzero" opacity="1" stroke="none"/>
<path d="M356.835 156.024C351.598 156.024 348.766 159.973 348.766 163.839C348.766 167.445 351.168 169.677 355.031 169.677C360.355 169.677 363.103 165.641 363.103 161.778C363.103 158.259 360.698 156.024 356.835 156.024ZM352.372 219.474L360.441 173.71L347.048 173.71L338.892 219.474L352.372 219.474Z" fill="#3a7cc8" fill-rule="nonzero" opacity="1" stroke="none"/>
<path d="M398.903 172.509C394.61 172.509 391.091 173.367 387.655 175.428L382.848 180.495L384.049 173.71L370.656 173.71L362.586 219.474L376.066 219.474L379.672 198.525C381.817 186.847 386.367 181.869 391.862 181.783C396.929 181.783 398.646 184.528 398.646 188.651C398.646 190.282 398.303 192.687 397.786 195.95L393.579 219.474L406.973 219.474L411.696 193.201C412.47 188.995 412.727 186.676 412.727 184.271C412.727 177.403 408.26 172.509 398.903 172.509Z" fill="#000000" fill-rule="nonzero" opacity="1" stroke="none"/>
<path d="M448.01 195.09L471.621 173.71L455.653 173.71L434.79 193.632L441.402 156.367L427.922 156.367L416.76 219.474L430.24 219.474L432.642 205.737L437.452 201.531L448.698 219.474L465.013 219.474L448.01 195.09Z" fill="#000000" fill-rule="nonzero" opacity="1" stroke="none"/>
<g opacity="1">
<clipPath id="ClipPath">
<path d="M316.961 160.606L333.73 160.606L333.73 177.379L316.961 177.379L316.961 160.606Z"/>
</clipPath>
<g clip-path="url(#ClipPath)">
<path d="M325.344 160.606C324.794 160.606 324.25 160.66 323.71 160.768C323.169 160.875 322.646 161.034 322.135 161.246C321.627 161.455 321.143 161.715 320.686 162.019C320.229 162.327 319.805 162.674 319.417 163.062C319.025 163.453 318.679 163.875 318.374 164.335C318.066 164.792 317.809 165.276 317.597 165.784C317.388 166.292 317.23 166.817 317.122 167.355C317.015 167.896 316.961 168.443 316.961 168.992C316.961 169.542 317.015 170.089 317.122 170.627C317.23 171.167 317.388 171.693 317.597 172.201C317.809 172.709 318.066 173.193 318.374 173.65C318.679 174.107 319.025 174.531 319.417 174.923C319.805 175.311 320.229 175.658 320.686 175.965C321.143 176.27 321.627 176.527 322.135 176.739C322.646 176.951 323.169 177.11 323.71 177.217C324.25 177.325 324.794 177.379 325.344 177.379C325.897 177.379 326.44 177.325 326.981 177.217C327.522 177.11 328.045 176.951 328.556 176.739C329.063 176.527 329.547 176.27 330.005 175.965C330.462 175.658 330.886 175.311 331.274 174.923C331.663 174.531 332.012 174.107 332.317 173.65C332.625 173.193 332.882 172.709 333.094 172.201C333.303 171.693 333.461 171.167 333.569 170.627C333.676 170.089 333.73 169.542 333.73 168.992C333.73 168.443 333.676 167.896 333.569 167.358C333.461 166.817 333.3 166.292 333.091 165.784C332.879 165.276 332.622 164.792 332.314 164.335C332.009 163.878 331.66 163.453 331.271 163.065C330.883 162.677 330.459 162.33 330.002 162.022C329.544 161.718 329.06 161.458 328.553 161.249C328.045 161.037 327.519 160.878 326.981 160.771C326.44 160.66 325.897 160.606 325.344 160.606ZM325.344 175.141C324.941 175.141 324.54 175.102 324.146 175.024C323.749 174.944 323.366 174.827 322.993 174.675C322.619 174.519 322.264 174.328 321.929 174.104C321.594 173.88 321.284 173.626 320.997 173.339C320.71 173.056 320.456 172.745 320.232 172.407C320.008 172.073 319.82 171.717 319.665 171.347C319.509 170.973 319.393 170.588 319.315 170.19C319.234 169.796 319.195 169.396 319.195 168.992C319.195 168.589 319.234 168.189 319.315 167.791C319.393 167.397 319.509 167.012 319.665 166.638C319.82 166.265 320.008 165.912 320.232 165.575C320.456 165.24 320.71 164.929 320.997 164.643C321.284 164.359 321.594 164.105 321.929 163.878C322.264 163.654 322.619 163.465 322.993 163.31C323.366 163.158 323.749 163.041 324.146 162.961C324.54 162.883 324.941 162.844 325.344 162.844C325.75 162.844 326.148 162.883 326.545 162.961C326.942 163.041 327.325 163.158 327.698 163.31C328.072 163.465 328.427 163.654 328.762 163.878C329.096 164.105 329.407 164.359 329.694 164.643C329.978 164.929 330.235 165.24 330.459 165.575C330.683 165.912 330.871 166.265 331.026 166.638C331.182 167.012 331.298 167.397 331.376 167.791C331.457 168.189 331.495 168.589 331.495 168.992C331.495 169.396 331.454 169.796 331.376 170.19C331.295 170.588 331.179 170.97 331.023 171.344C330.871 171.717 330.68 172.073 330.456 172.407C330.232 172.742 329.978 173.053 329.691 173.339C329.407 173.623 329.096 173.877 328.759 174.104C328.424 174.328 328.072 174.516 327.698 174.672C327.325 174.827 326.939 174.944 326.545 175.021C326.148 175.102 325.75 175.141 325.344 175.141Z" fill="#3a7cc8" fill-rule="nonzero" opacity="1" stroke="none"/>
</g>
</g>
<path d="M331.564 167.929L359.259 162.357" fill="none" opacity="1" stroke="#3a7cc8" stroke-linecap="butt" stroke-linejoin="miter" stroke-width="2.88878"/>
<g opacity="1">
<clipPath id="ClipPath_2">
<path d="M332.027 136.066L348.799 136.066L348.799 152.836L332.027 152.836L332.027 136.066Z"/>
</clipPath>
<g clip-path="url(#ClipPath_2)">
<path d="M340.413 136.066C339.864 136.066 339.317 136.117 338.779 136.225C338.238 136.332 337.712 136.494 337.205 136.703C336.697 136.915 336.213 137.172 335.756 137.479C335.299 137.784 334.874 138.131 334.486 138.522C334.095 138.91 333.748 139.335 333.443 139.792C333.136 140.249 332.879 140.733 332.666 141.241C332.457 141.749 332.296 142.275 332.188 142.815C332.081 143.353 332.027 143.9 332.027 144.449C332.027 145.002 332.081 145.546 332.188 146.087C332.296 146.627 332.457 147.15 332.666 147.658C332.879 148.169 333.136 148.65 333.443 149.11C333.748 149.567 334.095 149.991 334.486 150.38C334.874 150.768 335.299 151.118 335.756 151.422C336.213 151.727 336.697 151.987 337.205 152.196C337.712 152.408 338.238 152.567 338.779 152.674C339.317 152.782 339.864 152.836 340.413 152.836C340.966 152.836 341.51 152.782 342.05 152.674C342.591 152.567 343.114 152.408 343.622 152.196C344.133 151.987 344.614 151.727 345.074 151.422C345.531 151.118 345.955 150.768 346.344 150.38C346.732 149.991 347.082 149.567 347.386 149.11C347.691 148.65 347.951 148.169 348.16 147.658C348.372 147.15 348.531 146.627 348.638 146.087C348.746 145.546 348.799 145.002 348.799 144.449C348.799 143.9 348.746 143.356 348.638 142.815C348.528 142.275 348.369 141.752 348.157 141.244C347.948 140.736 347.688 140.252 347.383 139.795C347.079 139.338 346.729 138.913 346.341 138.525C345.952 138.134 345.528 137.787 345.071 137.482C344.614 137.175 344.13 136.918 343.622 136.706C343.114 136.494 342.588 136.335 342.05 136.228C341.51 136.12 340.963 136.066 340.413 136.066ZM340.413 150.601C340.01 150.601 339.61 150.559 339.215 150.481C338.818 150.404 338.433 150.287 338.062 150.132C337.689 149.976 337.333 149.788 336.998 149.564C336.661 149.34 336.35 149.083 336.066 148.799C335.78 148.513 335.526 148.202 335.302 147.867C335.077 147.53 334.886 147.177 334.734 146.804C334.579 146.43 334.462 146.045 334.384 145.65C334.304 145.253 334.265 144.853 334.265 144.449C334.265 144.046 334.304 143.646 334.384 143.251C334.462 142.854 334.579 142.469 334.734 142.098C334.886 141.725 335.077 141.369 335.302 141.035C335.526 140.697 335.78 140.386 336.066 140.103C336.35 139.816 336.661 139.562 336.998 139.338C337.333 139.114 337.689 138.922 338.062 138.77C338.433 138.615 338.818 138.498 339.215 138.421C339.61 138.34 340.01 138.301 340.413 138.301C340.817 138.301 341.217 138.34 341.614 138.421C342.009 138.498 342.394 138.615 342.767 138.77C343.141 138.922 343.493 139.114 343.831 139.338C344.166 139.562 344.476 139.816 344.763 140.103C345.047 140.386 345.304 140.697 345.528 141.035C345.752 141.369 345.94 141.725 346.096 142.098C346.251 142.469 346.368 142.854 346.445 143.251C346.523 143.646 346.565 144.046 346.565 144.449C346.562 144.853 346.523 145.253 346.445 145.65C346.365 146.045 346.248 146.43 346.093 146.804C345.937 147.174 345.749 147.53 345.525 147.864C345.301 148.202 345.044 148.51 344.76 148.796C344.473 149.083 344.166 149.337 343.828 149.561C343.493 149.785 343.138 149.974 342.767 150.129C342.394 150.284 342.009 150.401 341.614 150.481C341.217 150.559 340.817 150.598 340.413 150.601Z" fill="#3a7cc8" fill-rule="nonzero" opacity="1" stroke="none"/>
</g>
</g>
<path d="M346.311 149.567L358.431 162.405" fill="none" opacity="1" stroke="#3a7cc8" stroke-linecap="butt" stroke-linejoin="miter" stroke-width="2.88921"/>
<g opacity="1">
<clipPath id="ClipPath_3">
<path d="M332.998 137.473L348.002 137.473L348.002 152.48L332.998 152.48L332.998 137.473Z"/>
</clipPath>
<g clip-path="url(#ClipPath_3)">
<path d="M348.002 144.975C348.002 149.122 344.644 152.48 340.5 152.48C338.179 152.48 336.108 151.425 334.731 149.77C333.703 148.536 333.067 146.965 333.004 145.247C333.001 145.158 332.998 145.065 332.998 144.975C332.998 140.834 336.356 137.473 340.5 137.473C341.351 137.473 342.167 137.614 342.929 137.877C344.512 138.418 345.854 139.472 346.759 140.843C347.542 142.027 348.002 143.449 348.002 144.975" fill="#3a7cc8" fill-rule="nonzero" opacity="1" stroke="none"/>
</g>
</g>
<g opacity="1">
<clipPath id="ClipPath_4">
<path d="M318.553 161.287L333.56 161.287L333.56 176.294L318.553 176.294L318.553 161.287Z"/>
</clipPath>
<g clip-path="url(#ClipPath_4)">
<path d="M333.557 168.789C333.557 172.936 330.199 176.294 326.058 176.294C323.737 176.294 321.663 175.239 320.289 173.584C319.258 172.35 318.622 170.779 318.562 169.061C318.559 168.972 318.556 168.879 318.556 168.789C318.556 164.646 321.914 161.287 326.058 161.287C326.909 161.287 327.725 161.428 328.487 161.691C330.067 162.232 331.409 163.286 332.317 164.657C333.1 165.841 333.557 167.263 333.557 168.789" fill="#3a7cc8" fill-rule="nonzero" opacity="1" stroke="none"/>
</g>
</g>
<path d="M78.7395 160.233L65.3462 160.233L59.0782 196.294C58.648 198.439 58.3044 200.327 57.7906 202.302C56.3296 207.712 53.3241 210.718 48.4305 210.718C43.3665 210.718 40.5313 208.056 41.3917 200.243L41.7353 197.408L28.2554 197.408L27.9118 200.243C26.1073 212.692 32.7188 220.675 46.2854 220.675C61.5669 220.675 68.6086 213.379 71.0106 203.075C71.9577 199.039 72.3013 197.151 72.7285 194.576L78.7395 160.233Z" fill="#000000" fill-rule="nonzero" opacity="1" stroke="none"/>
<path d="M106.984 172.509C95.6496 172.509 86.2059 178.434 84.2311 188.908L97.1105 188.908C98.2279 184.358 100.973 181.783 105.61 181.783C109.389 181.783 110.761 183.928 110.761 186.503C110.761 187.964 110.59 189.425 110.334 190.97L110.247 191.484C90.9292 190.453 79.4241 197.408 79.4241 208.483C79.4241 216.726 85.1751 220.675 92.2169 220.675C96.5967 220.675 100.63 219.644 103.722 217.413L106.554 212.863L106.384 219.474L119.52 219.474C119.777 214.407 120.121 211.318 120.721 207.882L123.126 194.232C123.897 189.939 124.327 187.364 124.327 184.872C124.327 177.747 119.604 172.509 106.984 172.509ZM108.185 202.818L108.185 202.989C107.155 208.399 102.518 211.405 98.8284 211.405C95.566 211.405 93.4179 209.857 93.4179 206.681C93.4179 201.014 99.9428 198.352 108.786 199.296L108.185 202.818Z" fill="#000000" fill-rule="nonzero" opacity="1" stroke="none"/>
<path d="M161.844 172.509C159.099 172.509 155.576 173.71 152.917 176.115L148.194 182.557L149.739 173.97L136.259 173.97L128.276 219.474L141.756 219.474L145.102 200.327C147.851 185.302 155.233 182.984 163.305 183.758L165.193 172.853C164.163 172.683 163.219 172.509 161.844 172.509Z" fill="#000000" fill-rule="nonzero" opacity="1" stroke="none"/>
<path d="M214.302 173.71L199.535 173.71L182.966 208.483L178.672 173.71L163.648 173.71L173.262 219.474L188.46 219.474L214.302 173.71Z" fill="#000000" fill-rule="nonzero" opacity="1" stroke="none"/>
<path d="M228.21 156.024C222.973 156.024 220.141 159.973 220.141 163.839C220.141 167.445 222.543 169.677 226.406 169.677C231.73 169.677 234.478 165.641 234.478 161.778C234.478 158.259 232.073 156.024 228.21 156.024ZM223.747 219.474L231.816 173.71L218.423 173.71L210.267 219.474L223.747 219.474Z" fill="#000000" fill-rule="nonzero" opacity="1" stroke="none"/>
<path d="M256.456 172.766C243.493 172.766 236.795 179.464 236.795 187.277C236.795 194.833 241.518 197.751 248.9 200.327C256.543 202.902 258.688 204.707 258.688 207.712C258.688 210.888 256.113 212.519 252.593 212.519C248.73 212.519 245.638 210.718 245.208 205.908L231.815 205.908C232.331 215.438 239.37 221.192 252.076 221.192C264.269 221.192 272.768 215.698 272.768 206.338C272.768 199.296 268.819 195.433 259.892 192.514C252.937 190.196 250.875 188.822 250.875 185.559C250.875 183.241 252.593 181.353 255.942 181.353C259.205 181.353 261.006 183.501 261.436 187.277L274.659 187.277C274.229 178.948 268.992 172.766 256.456 172.766Z" fill="#000000" fill-rule="nonzero" opacity="1" stroke="none"/>
</g>
</svg>
