<svg xmlns="http://www.w3.org/2000/svg" xmlns:xlink="http://www.w3.org/1999/xlink" width="1024" zoomAndPan="magnify" viewBox="0 0 768 525.000007" height="700" preserveAspectRatio="xMidYMid meet" version="1.0"><defs><g/><clipPath id="7e205b569d"><path d="M 0.730469 0 L 767.269531 0 L 767.269531 524 L 0.730469 524 Z M 0.730469 0 " clip-rule="nonzero"/></clipPath><clipPath id="2656444266"><path d="M 462.597656 223.800781 L 486.214844 223.800781 L 486.214844 247.417969 L 462.597656 247.417969 Z M 462.597656 223.800781 " clip-rule="nonzero"/></clipPath><clipPath id="452f38560d"><path d="M 483.820312 189.238281 L 507.4375 189.238281 L 507.4375 212.855469 L 483.820312 212.855469 Z M 483.820312 189.238281 " clip-rule="nonzero"/></clipPath><clipPath id="7503cc4710"><path d="M 485.183594 191.222656 L 506.3125 191.222656 L 506.3125 212.355469 L 485.183594 212.355469 Z M 485.183594 191.222656 " clip-rule="nonzero"/></clipPath><clipPath id="599502fc59"><path d="M 464.84375 224.757812 L 485.972656 224.757812 L 485.972656 245.890625 L 464.84375 245.890625 Z M 464.84375 224.757812 " clip-rule="nonzero"/></clipPath></defs><g clip-path="url(#7e205b569d)"><path fill="#ffffff" d="M 0.730469 0 L 767.269531 0 L 767.269531 531.488281 L 0.730469 531.488281 Z M 0.730469 0 " fill-opacity="1" fill-rule="nonzero"/><path fill="#ffffff" d="M 0.730469 0 L 767.269531 0 L 767.269531 524 L 0.730469 524 Z M 0.730469 0 " fill-opacity="1" fill-rule="nonzero"/><path fill="#000000" d="M 0.730469 0 L 767.269531 0 L 767.269531 524 L 0.730469 524 Z M 0.730469 0 " fill-opacity="1" fill-rule="nonzero"/></g><g fill="#ffffff" fill-opacity="1"><g transform="translate(418.523264, 306.740036)"><g><path d="M 68.191406 -15.960938 L 25.148438 -15.960938 L 37.121094 -83.425781 L 18.257812 -83.425781 L 3.507812 0 L 65.292969 0 Z M 68.191406 -15.960938 "/></g></g></g><g fill="#3a7cc8" fill-opacity="1"><g transform="translate(491.905711, 306.740036)"><g><path d="M 26.84375 -89.351562 C 19.464844 -89.351562 15.476562 -83.789062 15.476562 -78.347656 C 15.476562 -73.269531 18.863281 -70.128906 24.304688 -70.128906 C 31.800781 -70.128906 35.667969 -75.808594 35.667969 -81.25 C 35.667969 -86.207031 32.28125 -89.351562 26.84375 -89.351562 Z M 20.554688 0 L 31.921875 -64.445312 L 13.058594 -64.445312 L 1.570312 0 Z M 20.554688 0 "/></g></g></g><g fill="#ffffff" fill-opacity="1"><g transform="translate(525.264811, 306.740036)"><g><path d="M 52.714844 -66.136719 C 46.671875 -66.136719 41.714844 -64.929688 36.878906 -62.027344 L 30.105469 -54.894531 L 31.800781 -64.445312 L 12.9375 -64.445312 L 1.570312 0 L 20.554688 0 L 25.632812 -29.5 C 28.65625 -45.945312 35.0625 -52.957031 42.800781 -53.078125 C 49.9375 -53.078125 52.355469 -49.210938 52.355469 -43.40625 C 52.355469 -41.109375 51.871094 -37.722656 51.144531 -33.128906 L 45.21875 0 L 64.082031 0 L 70.730469 -37 C 71.820312 -42.921875 72.183594 -46.1875 72.183594 -49.574219 C 72.183594 -59.246094 65.894531 -66.136719 52.714844 -66.136719 Z M 52.714844 -66.136719 "/></g></g></g><g fill="#ffffff" fill-opacity="1"><g transform="translate(601.554608, 306.740036)"><g><path d="M 45.582031 -34.339844 L 78.832031 -64.445312 L 56.34375 -64.445312 L 26.960938 -36.394531 L 36.273438 -88.867188 L 17.289062 -88.867188 L 1.570312 0 L 20.554688 0 L 23.941406 -19.34375 L 30.710938 -25.269531 L 46.550781 0 L 69.523438 0 Z M 45.582031 -34.339844 "/></g></g></g><g clip-path="url(#2656444266)"><path fill="#3a7cc8" d="M 474.40625 223.800781 C 473.632812 223.800781 472.863281 223.875 472.101562 224.027344 C 471.34375 224.175781 470.605469 224.402344 469.886719 224.699219 C 469.171875 224.996094 468.492188 225.359375 467.847656 225.789062 C 467.203125 226.21875 466.605469 226.710938 466.058594 227.257812 C 465.507812 227.804688 465.019531 228.402344 464.589844 229.046875 C 464.15625 229.691406 463.792969 230.371094 463.496094 231.089844 C 463.199219 231.804688 462.976562 232.542969 462.824219 233.304688 C 462.675781 234.066406 462.597656 234.832031 462.597656 235.609375 C 462.597656 236.382812 462.675781 237.152344 462.824219 237.910156 C 462.976562 238.671875 463.199219 239.410156 463.496094 240.125 C 463.792969 240.84375 464.15625 241.523438 464.589844 242.167969 C 465.019531 242.8125 465.507812 243.410156 466.058594 243.957031 C 466.605469 244.507812 467.203125 244.996094 467.847656 245.425781 C 468.492188 245.855469 469.171875 246.222656 469.886719 246.519531 C 470.605469 246.816406 471.34375 247.039062 472.101562 247.191406 C 472.863281 247.339844 473.632812 247.417969 474.40625 247.417969 C 475.183594 247.417969 475.949219 247.339844 476.710938 247.191406 C 477.472656 247.039062 478.210938 246.816406 478.925781 246.519531 C 479.640625 246.222656 480.324219 245.855469 480.96875 245.425781 C 481.613281 244.996094 482.207031 244.507812 482.757812 243.957031 C 483.304688 243.410156 483.792969 242.8125 484.226562 242.167969 C 484.65625 241.523438 485.019531 240.84375 485.316406 240.125 C 485.613281 239.410156 485.835938 238.671875 485.988281 237.910156 C 486.140625 237.152344 486.214844 236.382812 486.214844 235.609375 C 486.214844 234.832031 486.136719 234.066406 485.988281 233.304688 C 485.835938 232.546875 485.609375 231.808594 485.3125 231.089844 C 485.015625 230.375 484.652344 229.695312 484.222656 229.050781 C 483.789062 228.40625 483.300781 227.808594 482.753906 227.261719 C 482.203125 226.714844 481.609375 226.222656 480.964844 225.792969 C 480.320312 225.363281 479.640625 225 478.921875 224.703125 C 478.207031 224.40625 477.46875 224.179688 476.710938 224.027344 C 475.949219 223.875 475.183594 223.800781 474.40625 223.800781 Z M 474.40625 244.269531 C 473.839844 244.269531 473.273438 244.210938 472.71875 244.101562 C 472.160156 243.992188 471.617188 243.824219 471.09375 243.609375 C 470.566406 243.390625 470.070312 243.125 469.597656 242.808594 C 469.125 242.492188 468.6875 242.132812 468.285156 241.730469 C 467.882812 241.328125 467.523438 240.890625 467.207031 240.417969 C 466.890625 239.945312 466.625 239.445312 466.40625 238.921875 C 466.1875 238.398438 466.023438 237.855469 465.914062 237.296875 C 465.800781 236.738281 465.746094 236.175781 465.746094 235.609375 C 465.746094 235.039062 465.800781 234.476562 465.914062 233.917969 C 466.023438 233.359375 466.1875 232.820312 466.40625 232.292969 C 466.625 231.769531 466.890625 231.269531 467.207031 230.796875 C 467.523438 230.324219 467.882812 229.886719 468.285156 229.484375 C 468.6875 229.082031 469.125 228.722656 469.597656 228.40625 C 470.070312 228.089844 470.566406 227.824219 471.09375 227.605469 C 471.617188 227.390625 472.160156 227.226562 472.71875 227.113281 C 473.273438 227.003906 473.839844 226.949219 474.40625 226.949219 C 474.976562 226.949219 475.539062 227.003906 476.097656 227.113281 C 476.652344 227.226562 477.195312 227.390625 477.722656 227.605469 C 478.246094 227.824219 478.746094 228.089844 479.21875 228.40625 C 479.691406 228.722656 480.128906 229.082031 480.53125 229.484375 C 480.933594 229.886719 481.292969 230.324219 481.605469 230.796875 C 481.921875 231.269531 482.191406 231.769531 482.40625 232.292969 C 482.625 232.820312 482.789062 233.359375 482.898438 233.917969 C 483.011719 234.476562 483.066406 235.039062 483.066406 235.609375 C 483.066406 236.175781 483.011719 236.738281 482.898438 237.296875 C 482.789062 237.855469 482.621094 238.394531 482.40625 238.921875 C 482.1875 239.445312 481.921875 239.945312 481.605469 240.417969 C 481.289062 240.890625 480.929688 241.328125 480.527344 241.726562 C 480.125 242.128906 479.6875 242.488281 479.214844 242.804688 C 478.742188 243.121094 478.246094 243.386719 477.71875 243.605469 C 477.195312 243.824219 476.652344 243.988281 476.09375 244.097656 C 475.539062 244.210938 474.976562 244.265625 474.40625 244.269531 Z M 474.40625 244.269531 " fill-opacity="1" fill-rule="nonzero"/></g><path stroke-linecap="butt" transform="matrix(0.610783, -0.122937, 0.122637, 0.609292, 483.165407, 234.112687)" fill="none" stroke-linejoin="miter" d="M -0.00230335 0.000510849 L 63.856847 -0.000966298 " stroke="#3a7cc8" stroke-width="5" stroke-opacity="1" stroke-miterlimit="4"/><g clip-path="url(#452f38560d)"><path fill="#3a7cc8" d="M 495.628906 189.238281 C 494.851562 189.238281 494.082031 189.3125 493.324219 189.464844 C 492.5625 189.617188 491.824219 189.839844 491.109375 190.136719 C 490.390625 190.433594 489.710938 190.796875 489.066406 191.230469 C 488.421875 191.660156 487.824219 192.148438 487.277344 192.695312 C 486.730469 193.246094 486.238281 193.84375 485.808594 194.488281 C 485.378906 195.132812 485.015625 195.8125 484.71875 196.527344 C 484.421875 197.246094 484.195312 197.984375 484.046875 198.742188 C 483.894531 199.503906 483.820312 200.273438 483.820312 201.046875 C 483.820312 201.824219 483.894531 202.589844 484.046875 203.351562 C 484.195312 204.113281 484.421875 204.851562 484.71875 205.566406 C 485.015625 206.28125 485.378906 206.964844 485.808594 207.609375 C 486.238281 208.253906 486.730469 208.847656 487.277344 209.398438 C 487.824219 209.945312 488.421875 210.433594 489.066406 210.867188 C 489.710938 211.296875 490.390625 211.660156 491.109375 211.957031 C 491.824219 212.253906 492.5625 212.476562 493.324219 212.628906 C 494.082031 212.78125 494.851562 212.855469 495.628906 212.855469 C 496.402344 212.855469 497.171875 212.78125 497.929688 212.628906 C 498.691406 212.476562 499.429688 212.253906 500.144531 211.957031 C 500.863281 211.660156 501.542969 211.296875 502.1875 210.867188 C 502.832031 210.433594 503.429688 209.945312 503.976562 209.398438 C 504.527344 208.847656 505.015625 208.253906 505.445312 207.609375 C 505.875 206.964844 506.242188 206.28125 506.535156 205.566406 C 506.832031 204.851562 507.058594 204.113281 507.210938 203.351562 C 507.359375 202.589844 507.4375 201.824219 507.4375 201.046875 C 507.433594 200.273438 507.359375 199.503906 507.207031 198.746094 C 507.054688 197.984375 506.832031 197.246094 506.535156 196.53125 C 506.234375 195.816406 505.871094 195.132812 505.441406 194.488281 C 505.011719 193.84375 504.519531 193.25 503.972656 192.703125 C 503.425781 192.152344 502.828125 191.664062 502.183594 191.234375 C 501.539062 190.800781 500.859375 190.4375 500.144531 190.140625 C 499.429688 189.84375 498.691406 189.621094 497.929688 189.46875 C 497.167969 189.316406 496.402344 189.238281 495.628906 189.238281 Z M 495.628906 209.707031 C 495.058594 209.707031 494.496094 209.652344 493.9375 209.539062 C 493.378906 209.429688 492.839844 209.265625 492.3125 209.046875 C 491.789062 208.832031 491.289062 208.5625 490.816406 208.246094 C 490.34375 207.929688 489.90625 207.574219 489.503906 207.171875 C 489.101562 206.769531 488.742188 206.332031 488.425781 205.859375 C 488.109375 205.386719 487.84375 204.886719 487.625 204.359375 C 487.410156 203.835938 487.246094 203.292969 487.132812 202.738281 C 487.023438 202.179688 486.96875 201.617188 486.96875 201.046875 C 486.96875 200.480469 487.023438 199.914062 487.132812 199.359375 C 487.246094 198.800781 487.410156 198.257812 487.625 197.734375 C 487.84375 197.207031 488.109375 196.707031 488.425781 196.234375 C 488.742188 195.761719 489.101562 195.324219 489.503906 194.925781 C 489.90625 194.523438 490.34375 194.164062 490.816406 193.847656 C 491.289062 193.53125 491.789062 193.265625 492.3125 193.046875 C 492.839844 192.828125 493.378906 192.664062 493.9375 192.554688 C 494.496094 192.441406 495.058594 192.386719 495.628906 192.386719 C 496.195312 192.386719 496.757812 192.441406 497.316406 192.554688 C 497.875 192.664062 498.414062 192.828125 498.941406 193.046875 C 499.464844 193.265625 499.964844 193.53125 500.4375 193.847656 C 500.910156 194.164062 501.347656 194.523438 501.75 194.925781 C 502.152344 195.324219 502.511719 195.761719 502.828125 196.234375 C 503.144531 196.707031 503.410156 197.207031 503.628906 197.734375 C 503.84375 198.257812 504.007812 198.800781 504.121094 199.359375 C 504.230469 199.914062 504.285156 200.480469 504.285156 201.046875 C 504.285156 201.617188 504.230469 202.179688 504.117188 202.734375 C 504.007812 203.292969 503.84375 203.835938 503.625 204.359375 C 503.40625 204.882812 503.140625 205.382812 502.824219 205.855469 C 502.507812 206.328125 502.148438 206.765625 501.746094 207.167969 C 501.34375 207.570312 500.910156 207.929688 500.4375 208.246094 C 499.964844 208.558594 499.464844 208.828125 498.941406 209.046875 C 498.414062 209.261719 497.875 209.425781 497.316406 209.539062 C 496.757812 209.648438 496.195312 209.707031 495.628906 209.707031 Z M 495.628906 209.707031 " fill-opacity="1" fill-rule="nonzero"/></g><path stroke-linecap="butt" transform="matrix(0.42782, 0.453175, -0.451936, 0.42665, 503.932075, 208.253487)" fill="none" stroke-linejoin="miter" d="M 0.00216236 -0.00131457 L 39.894032 -0.00105663 " stroke="#3a7cc8" stroke-width="5" stroke-opacity="1" stroke-miterlimit="4"/><g clip-path="url(#7503cc4710)"><path fill="#3a7cc8" d="M 506.3125 201.785156 C 506.3125 207.625 501.582031 212.355469 495.746094 212.355469 C 492.480469 212.355469 489.5625 210.871094 487.625 208.539062 C 486.175781 206.800781 485.277344 204.585938 485.195312 202.171875 C 485.1875 202.042969 485.183594 201.914062 485.183594 201.785156 C 485.183594 195.953125 489.914062 191.222656 495.746094 191.222656 C 496.949219 191.222656 498.097656 191.421875 499.171875 191.792969 C 501.398438 192.554688 503.285156 194.035156 504.5625 195.96875 C 505.667969 197.636719 506.3125 199.636719 506.3125 201.785156 " fill-opacity="1" fill-rule="nonzero"/></g><g clip-path="url(#599502fc59)"><path fill="#3a7cc8" d="M 485.972656 235.324219 C 485.972656 241.160156 481.242188 245.890625 475.410156 245.890625 C 472.140625 245.890625 469.222656 244.40625 467.285156 242.074219 C 465.835938 240.335938 464.941406 238.121094 464.855469 235.707031 C 464.847656 235.578125 464.84375 235.449219 464.84375 235.324219 C 464.84375 229.488281 469.574219 224.757812 475.410156 224.757812 C 476.609375 224.757812 477.757812 224.957031 478.832031 225.328125 C 481.058594 226.089844 482.945312 227.570312 484.222656 229.503906 C 485.328125 231.171875 485.972656 233.171875 485.972656 235.324219 " fill-opacity="1" fill-rule="nonzero"/></g><g fill="#ffffff" fill-opacity="1"><g transform="translate(53.130222, 306.740036)"><g><path d="M 73.996094 -83.425781 L 55.136719 -83.425781 L 46.308594 -32.644531 C 45.703125 -29.621094 45.21875 -26.960938 44.496094 -24.183594 C 42.4375 -16.566406 38.207031 -12.332031 31.316406 -12.332031 C 24.183594 -12.332031 20.191406 -16.082031 21.402344 -27.082031 L 21.882812 -31.074219 L 2.902344 -31.074219 L 2.417969 -27.082031 C -0.121094 -9.550781 9.1875 1.691406 28.292969 1.691406 C 49.816406 1.691406 59.730469 -8.585938 63.113281 -23.09375 C 64.445312 -28.777344 64.929688 -31.4375 65.53125 -35.0625 Z M 73.996094 -83.425781 "/></g></g></g><g fill="#ffffff" fill-opacity="1"><g transform="translate(126.639255, 306.740036)"><g><path d="M 40.261719 -66.136719 C 24.304688 -66.136719 11.003906 -57.792969 8.222656 -43.042969 L 26.359375 -43.042969 C 27.929688 -49.453125 31.800781 -53.078125 38.328125 -53.078125 C 43.648438 -53.078125 45.582031 -50.054688 45.582031 -46.429688 C 45.582031 -44.375 45.339844 -42.320312 44.976562 -40.140625 L 44.859375 -39.417969 C 17.652344 -40.867188 1.449219 -31.074219 1.449219 -15.476562 C 1.449219 -3.867188 9.550781 1.691406 19.464844 1.691406 C 25.632812 1.691406 31.316406 0.242188 35.667969 -2.902344 L 39.660156 -9.308594 L 39.417969 0 L 57.914062 0 C 58.277344 -7.132812 58.761719 -11.488281 59.609375 -16.324219 L 62.992188 -35.546875 C 64.082031 -41.59375 64.6875 -45.21875 64.6875 -48.726562 C 64.6875 -58.761719 58.035156 -66.136719 40.261719 -66.136719 Z M 41.957031 -23.457031 L 41.957031 -23.214844 C 40.503906 -15.597656 33.976562 -11.367188 28.777344 -11.367188 C 24.183594 -11.367188 21.160156 -13.542969 21.160156 -18.015625 C 21.160156 -25.996094 30.347656 -29.742188 42.800781 -28.414062 Z M 41.957031 -23.457031 "/></g></g></g><g fill="#ffffff" fill-opacity="1"><g transform="translate(195.312163, 306.740036)"><g><path d="M 48.847656 -66.136719 C 44.976562 -66.136719 40.019531 -64.445312 36.273438 -61.058594 L 29.621094 -51.992188 L 31.800781 -64.082031 L 12.816406 -64.082031 L 1.570312 0 L 20.554688 0 L 25.269531 -26.960938 C 29.140625 -48.121094 39.539062 -51.386719 50.902344 -50.296875 L 53.5625 -65.652344 C 52.113281 -65.894531 50.78125 -66.136719 48.847656 -66.136719 Z M 48.847656 -66.136719 "/></g></g></g><g fill="#ffffff" fill-opacity="1"><g transform="translate(242.827044, 306.740036)"><g><path d="M 75.207031 -64.445312 L 54.410156 -64.445312 L 31.074219 -15.476562 L 25.027344 -64.445312 L 3.867188 -64.445312 L 17.410156 0 L 38.8125 0 Z M 75.207031 -64.445312 "/></g></g></g><g fill="#ffffff" fill-opacity="1"><g transform="translate(310.77455, 306.740036)"><g><path d="M 26.84375 -89.351562 C 19.464844 -89.351562 15.476562 -83.789062 15.476562 -78.347656 C 15.476562 -73.269531 18.863281 -70.128906 24.304688 -70.128906 C 31.800781 -70.128906 35.667969 -75.808594 35.667969 -81.25 C 35.667969 -86.207031 32.28125 -89.351562 26.84375 -89.351562 Z M 20.554688 0 L 31.921875 -64.445312 L 13.058594 -64.445312 L 1.570312 0 Z M 20.554688 0 "/></g></g></g><g fill="#ffffff" fill-opacity="1"><g transform="translate(344.143782, 306.740036)"><g><path d="M 33.25 -65.773438 C 14.992188 -65.773438 5.5625 -56.34375 5.5625 -45.339844 C 5.5625 -34.699219 12.210938 -30.589844 22.609375 -26.960938 C 33.371094 -23.335938 36.394531 -20.796875 36.394531 -16.566406 C 36.394531 -12.089844 32.765625 -9.792969 27.808594 -9.792969 C 22.367188 -9.792969 18.015625 -12.332031 17.410156 -19.105469 L -1.449219 -19.105469 C -0.726562 -5.683594 9.1875 2.417969 27.082031 2.417969 C 44.253906 2.417969 56.222656 -5.320312 56.222656 -18.5 C 56.222656 -28.414062 50.660156 -33.855469 38.085938 -37.964844 C 28.292969 -41.230469 25.390625 -43.164062 25.390625 -47.757812 C 25.390625 -51.023438 27.808594 -53.683594 32.523438 -53.683594 C 37.121094 -53.683594 39.660156 -50.660156 40.261719 -45.339844 L 58.882812 -45.339844 C 58.277344 -57.070312 50.902344 -65.773438 33.25 -65.773438 Z M 33.25 -65.773438 "/></g></g></g></svg>